<svg id="Layer_1" data-name="Layer 1" xmlns="http://www.w3.org/2000/svg" xmlns:xlink="http://www.w3.org/1999/xlink" viewBox="0 0 1000 1000"><defs><style>.cls-1{fill:#fff;}.cls-2{fill:#0f0f0f;}.cls-3{fill:#dd4c4d;}.cls-4{fill:#f8813a;}.cls-5{fill:#a0393b;}.cls-6{fill:#752c2c;}.cls-7{fill:url(#linear-gradient);}</style><linearGradient id="linear-gradient" x1="12102.35" y1="1805.94" x2="12169.64" y2="1805.94" gradientTransform="matrix(-0.96, -0.3, -0.3, 0.96, 12693.54, 2174.39)" gradientUnits="userSpaceOnUse"><stop offset="0" stop-color="#fff"/><stop offset="0.79" stop-color="#fff"/><stop offset="0.81" stop-color="#fff"/></linearGradient></defs><rect class="cls-1" width="1000" height="1000"/><path class="cls-2" d="M203.7,445.34a94.53,94.53,0,0,0-21.27,9.55c-39.12,24.46-48.62,75.94-24.64,112.19a81,81,0,0,0,56.29,36,79.78,79.78,0,0,0,58.79-14.65,85.49,85.49,0,0,0,22.68-25c5.89-9.59,17.12-34.73,20.8-41.27,15.45-27.47,35-38.17,58.75-39.27,23.43-1.08,38.51,7.12,54.17,16.63,35.85,21.76,71.18,64.46,119.07,86.25C614.16,615.68,695.61,610.4,759.82,567c102.7-69.37,127.13-212,50.7-311.85a216.8,216.8,0,0,0-292.33-48.8q-6.93,4.6-13.41,9.65c-30.85,23.95-59.27,64.46-76.62,111.13-12,32.37-16.39,50.9-26.39,77.41-21.66,57.4-70.84,69.3-119.28,51.5-5.23-1.93-23-8-28.38-9.5C242.4,443.3,225,439.2,203.7,445.34Zm344.93-191C622,204.84,721.88,224.2,771.41,297.52s30,172.85-43.3,222.37-173,30.44-222.48-42.88S475.31,303.89,548.63,254.37Z"/><path class="cls-2" d="M260.1,701.87a10,10,0,0,0-9.09.28,8.47,8.47,0,0,0-3.46,3.67l-26.48,57.74-26.82-57.78a8.52,8.52,0,0,0-3.33-3.62,8.91,8.91,0,0,0-8.55-.29c-4.43,2.22-5.36,5.56-5.36,8a8,8,0,0,0,.8,3.56l34.32,72.36a11.82,11.82,0,0,0,3.73,4.7,9.34,9.34,0,0,0,5.38,1.47c2.73,0,6.47-1.07,8.79-6.19l34.3-72.32a8.4,8.4,0,0,0,1-3.74,8.19,8.19,0,0,0-1.39-4.63A9,9,0,0,0,260.1,701.87Z"/><path class="cls-2" d="M369.16,700.42a9.65,9.65,0,0,0-7,2.68,9.47,9.47,0,0,0-2.8,7.06V755.8a17,17,0,0,1-2.9,9.69,20.64,20.64,0,0,1-8.16,6.94,26.33,26.33,0,0,1-11.72,2.6c-7.34,0-13.28-2.13-17.66-6.31s-6.58-10.46-6.58-18.74V710.16a9.75,9.75,0,1,0-19.5,0V750c0,8.95,1.75,16.73,5.2,23.12a35.83,35.83,0,0,0,14.52,14.77,44.67,44.67,0,0,0,36.55,2.1,38.21,38.21,0,0,0,10.35-6.11,9.2,9.2,0,0,0,2.69,5.45,10.17,10.17,0,0,0,14,0,9.6,9.6,0,0,0,2.69-6.94V710.16a9.26,9.26,0,0,0-9.75-9.74Z"/><path class="cls-2" d="M616.46,705.87h0a47.29,47.29,0,0,0-23.64-5.94,48,48,0,0,0-23.88,5.94,42.23,42.23,0,0,0-16.43,16.52,52,52,0,0,0,0,47.9,42.29,42.29,0,0,0,16.43,16.52,48,48,0,0,0,23.88,5.93,47.44,47.44,0,0,0,23.8-5.94A42.33,42.33,0,0,0,633,770.29a51.66,51.66,0,0,0-.08-47.91A43,43,0,0,0,616.46,705.87Zm-9.59,65.64a28.66,28.66,0,0,1-28.1,0,26,26,0,0,1-9.72-10.19,30.92,30.92,0,0,1-3.54-14.9,31.45,31.45,0,0,1,3.54-15,26,26,0,0,1,9.72-10.27,28.73,28.73,0,0,1,28.1,0,25.4,25.4,0,0,1,9.63,10.25,32.09,32.09,0,0,1,3.47,15,31.51,31.51,0,0,1-3.47,14.91A25.46,25.46,0,0,1,606.87,771.51Z"/><path class="cls-2" d="M735.62,702.37c-3.44-1.83-8.2-2.76-14.13-2.76A38,38,0,0,0,705.65,703a36.52,36.52,0,0,0-9.87,6.55c-.23-5.78-3.61-8.95-9.57-8.95a8.8,8.8,0,0,0-9.59,9.58v72.35c0,3.11.86,5.52,2.56,7.14a9.75,9.75,0,0,0,7,2.45c3.1,0,5.51-.87,7.14-2.57a9.73,9.73,0,0,0,2.44-7V735.25A15.53,15.53,0,0,1,702.32,722c4.45-3.34,10.47-5,17.87-5a63.59,63.59,0,0,1,10.22,1.1,14.57,14.57,0,0,0,2.73.36c4,0,6.76-2.17,7.89-6.21a6.89,6.89,0,0,0,.24-2.09C741.27,707,739.37,704.37,735.62,702.37Z"/><path class="cls-2" d="M816.71,775.69a7.84,7.84,0,0,0-6.05-2.77h-5.5a9.37,9.37,0,0,1-7.58-3.82,15,15,0,0,1-3.23-9.9V720.73h12.26a9.23,9.23,0,0,0,6.52-2.35,7.77,7.77,0,0,0,2.59-6,8.14,8.14,0,0,0-2.59-6.27,9.23,9.23,0,0,0-6.52-2.35H794.35V682a9.59,9.59,0,1,0-19.17,0v21.81h-5.95a9.27,9.27,0,0,0-6.52,2.34,8.19,8.19,0,0,0-2.58,6.28,7.78,7.78,0,0,0,2.58,6,9.23,9.23,0,0,0,6.52,2.35h5.95V759.2a35.72,35.72,0,0,0,3.89,16.72,30.36,30.36,0,0,0,10.8,11.82,28.29,28.29,0,0,0,15.29,4.36h2.91a11.76,11.76,0,0,0,7.85-2.62,8.77,8.77,0,0,0,3.19-7A9.86,9.86,0,0,0,816.71,775.69Z"/><path class="cls-2" d="M507.38,722.78A44.26,44.26,0,0,0,490.72,706a46.52,46.52,0,0,0-23.49-6.11A45.67,45.67,0,0,0,443.9,706c-1.16.68-2.22,1.47-3.31,2.23A9.1,9.1,0,0,0,438,703a9.57,9.57,0,0,0-7-2.7A9.67,9.67,0,0,0,424,703a9.44,9.44,0,0,0-2.8,7.07v36.17c0,.08,0,.15,0,.23v73.8a9.41,9.41,0,0,0,2.8,7.06,9.68,9.68,0,0,0,7,2.69,9.28,9.28,0,0,0,9.75-9.75V780.43a42.35,42.35,0,0,0,51.65,6.27A42.62,42.62,0,0,0,507.81,770a50.06,50.06,0,0,0,5.59-23.6A47.36,47.36,0,0,0,507.38,722.78Zm-16.45,38.37a27.21,27.21,0,0,1-9.82,10.29h0a26.76,26.76,0,0,1-37.48-10.28,30.6,30.6,0,0,1-3.55-14.74,31.1,31.1,0,0,1,3.55-14.83,27,27,0,0,1,37.48-10.35,27.13,27.13,0,0,1,9.82,10.36,30.59,30.59,0,0,1,3.62,14.82A30.1,30.1,0,0,1,490.93,761.15Z"/><path class="cls-3" d="M229.72,571.22c-.91.07-1.83.11-2.76.13a48.62,48.62,0,1,1,2.76-.13Zm-6.91-90.15a41.77,41.77,0,0,0,4,83.41A41.77,41.77,0,1,0,225.22,481C224.42,481,223.61,481,222.81,481.07Z"/><circle class="cls-3" cx="226.02" cy="522.72" r="33.73"/><ellipse class="cls-4" cx="637.68" cy="387.85" rx="179.94" ry="179.9" transform="translate(-87.48 564.5) rotate(-45)"/><ellipse class="cls-3" cx="637.68" cy="387.85" rx="166.04" ry="165.9" transform="translate(-87.48 564.5) rotate(-45)"/><ellipse class="cls-5" cx="637.68" cy="387.85" rx="126.8" ry="127.1" transform="translate(-87.57 564.12) rotate(-44.97)"/><circle class="cls-6" cx="637.68" cy="387.85" r="86.94"/><circle class="cls-7" cx="567.98" cy="299.31" r="33.63"/></svg>
